<mxfile host="Electron" agent="Mozilla/5.0 (Windows NT 10.0; Win64; x64) AppleWebKit/537.36 (KHTML, like Gecko) draw.io/26.0.16 Chrome/132.0.6834.196 Electron/34.2.0 Safari/537.36" version="26.0.16">
  <diagram name="Page-1" id="AmET3ZLWUX8B-lZlGHG7">
    <mxGraphModel dx="1434" dy="884" grid="1" gridSize="10" guides="1" tooltips="1" connect="1" arrows="1" fold="1" page="1" pageScale="1" pageWidth="850" pageHeight="1100" math="0" shadow="0">
      <root>
        <mxCell id="0" />
        <mxCell id="1" parent="0" />
        <mxCell id="1aM1Kx0VHSJil3waxq1c-9" style="edgeStyle=orthogonalEdgeStyle;rounded=0;orthogonalLoop=1;jettySize=auto;html=1;entryX=0.5;entryY=0;entryDx=0;entryDy=0;fontSize=18;" edge="1" parent="1" source="1aM1Kx0VHSJil3waxq1c-2" target="1aM1Kx0VHSJil3waxq1c-3">
          <mxGeometry relative="1" as="geometry" />
        </mxCell>
        <mxCell id="1aM1Kx0VHSJil3waxq1c-2" value="Start" style="strokeWidth=2;html=1;shape=mxgraph.flowchart.start_1;whiteSpace=wrap;fillColor=#ffe6cc;strokeColor=#d79b00;fontSize=18;fontStyle=1" vertex="1" parent="1">
          <mxGeometry x="380" y="170" width="100" height="60" as="geometry" />
        </mxCell>
        <mxCell id="1aM1Kx0VHSJil3waxq1c-10" style="edgeStyle=orthogonalEdgeStyle;rounded=0;orthogonalLoop=1;jettySize=auto;html=1;entryX=0.5;entryY=0;entryDx=0;entryDy=0;fontSize=18;" edge="1" parent="1" source="1aM1Kx0VHSJil3waxq1c-3" target="1aM1Kx0VHSJil3waxq1c-4">
          <mxGeometry relative="1" as="geometry" />
        </mxCell>
        <mxCell id="1aM1Kx0VHSJil3waxq1c-3" value="input n" style="shape=parallelogram;html=1;strokeWidth=2;perimeter=parallelogramPerimeter;whiteSpace=wrap;rounded=1;arcSize=12;size=0.23;fillColor=#ffe6cc;strokeColor=#d79b00;fontSize=18;" vertex="1" parent="1">
          <mxGeometry x="340" y="290" width="180" height="60" as="geometry" />
        </mxCell>
        <mxCell id="1aM1Kx0VHSJil3waxq1c-4" value="let val = 1, sum = 0" style="rounded=1;whiteSpace=wrap;html=1;absoluteArcSize=1;arcSize=14;strokeWidth=2;fillColor=#ffe6cc;strokeColor=#d79b00;fontSize=18;" vertex="1" parent="1">
          <mxGeometry x="340" y="410" width="180" height="100" as="geometry" />
        </mxCell>
        <mxCell id="1aM1Kx0VHSJil3waxq1c-12" style="edgeStyle=orthogonalEdgeStyle;rounded=0;orthogonalLoop=1;jettySize=auto;html=1;entryX=0.5;entryY=0;entryDx=0;entryDy=0;fontSize=18;" edge="1" parent="1" source="1aM1Kx0VHSJil3waxq1c-5" target="1aM1Kx0VHSJil3waxq1c-7">
          <mxGeometry relative="1" as="geometry" />
        </mxCell>
        <mxCell id="1aM1Kx0VHSJil3waxq1c-15" style="edgeStyle=orthogonalEdgeStyle;rounded=0;orthogonalLoop=1;jettySize=auto;html=1;fontSize=18;" edge="1" parent="1" source="1aM1Kx0VHSJil3waxq1c-5" target="1aM1Kx0VHSJil3waxq1c-6">
          <mxGeometry relative="1" as="geometry" />
        </mxCell>
        <mxCell id="1aM1Kx0VHSJil3waxq1c-5" value="val &amp;lt;= n" style="strokeWidth=2;html=1;shape=mxgraph.flowchart.decision;whiteSpace=wrap;fillColor=#ffe6cc;strokeColor=#d79b00;fontSize=18;fontStyle=1" vertex="1" parent="1">
          <mxGeometry x="370" y="570" width="120" height="100" as="geometry" />
        </mxCell>
        <mxCell id="1aM1Kx0VHSJil3waxq1c-6" value="sum = sum + val&lt;div&gt;val = val + 1&lt;/div&gt;" style="rounded=1;whiteSpace=wrap;html=1;absoluteArcSize=1;arcSize=14;strokeWidth=2;fillColor=#ffe6cc;strokeColor=#d79b00;fontSize=18;fontStyle=1" vertex="1" parent="1">
          <mxGeometry x="580" y="570" width="160" height="100" as="geometry" />
        </mxCell>
        <mxCell id="1aM1Kx0VHSJil3waxq1c-7" value="print sum" style="shape=parallelogram;html=1;strokeWidth=2;perimeter=parallelogramPerimeter;whiteSpace=wrap;rounded=1;arcSize=12;size=0.23;fillColor=#ffe6cc;strokeColor=#d79b00;fontSize=18;" vertex="1" parent="1">
          <mxGeometry x="340" y="730" width="180" height="60" as="geometry" />
        </mxCell>
        <mxCell id="1aM1Kx0VHSJil3waxq1c-8" value="Exit" style="strokeWidth=2;html=1;shape=mxgraph.flowchart.start_1;whiteSpace=wrap;fillColor=#ffe6cc;strokeColor=#d79b00;fontSize=18;fontStyle=1" vertex="1" parent="1">
          <mxGeometry x="380" y="850" width="100" height="60" as="geometry" />
        </mxCell>
        <mxCell id="1aM1Kx0VHSJil3waxq1c-11" style="edgeStyle=orthogonalEdgeStyle;rounded=0;orthogonalLoop=1;jettySize=auto;html=1;entryX=0.5;entryY=0;entryDx=0;entryDy=0;entryPerimeter=0;fontSize=18;" edge="1" parent="1" source="1aM1Kx0VHSJil3waxq1c-4" target="1aM1Kx0VHSJil3waxq1c-5">
          <mxGeometry relative="1" as="geometry" />
        </mxCell>
        <mxCell id="1aM1Kx0VHSJil3waxq1c-14" style="edgeStyle=orthogonalEdgeStyle;rounded=0;orthogonalLoop=1;jettySize=auto;html=1;entryX=0.5;entryY=0;entryDx=0;entryDy=0;entryPerimeter=0;fontSize=18;" edge="1" parent="1" source="1aM1Kx0VHSJil3waxq1c-7" target="1aM1Kx0VHSJil3waxq1c-8">
          <mxGeometry relative="1" as="geometry" />
        </mxCell>
        <mxCell id="1aM1Kx0VHSJil3waxq1c-17" value="" style="endArrow=none;html=1;rounded=0;fontSize=18;" edge="1" parent="1">
          <mxGeometry width="50" height="50" relative="1" as="geometry">
            <mxPoint x="725" y="619.5" as="sourcePoint" />
            <mxPoint x="805" y="620" as="targetPoint" />
          </mxGeometry>
        </mxCell>
        <mxCell id="1aM1Kx0VHSJil3waxq1c-18" value="" style="endArrow=none;html=1;rounded=0;fontSize=18;" edge="1" parent="1">
          <mxGeometry width="50" height="50" relative="1" as="geometry">
            <mxPoint x="805" y="620" as="sourcePoint" />
            <mxPoint x="805" y="540" as="targetPoint" />
          </mxGeometry>
        </mxCell>
        <mxCell id="1aM1Kx0VHSJil3waxq1c-19" value="" style="endArrow=classic;html=1;rounded=0;fontSize=18;" edge="1" parent="1">
          <mxGeometry width="50" height="50" relative="1" as="geometry">
            <mxPoint x="805" y="540" as="sourcePoint" />
            <mxPoint x="425" y="540" as="targetPoint" />
          </mxGeometry>
        </mxCell>
        <mxCell id="1aM1Kx0VHSJil3waxq1c-20" value="&lt;font style=&quot;color: rgb(255, 181, 112);&quot;&gt;input&lt;/font&gt;&lt;div&gt;number n&lt;/div&gt;" style="text;html=1;align=left;verticalAlign=middle;resizable=0;points=[];autosize=1;strokeColor=none;fillColor=none;fontSize=22;" vertex="1" parent="1">
          <mxGeometry x="50" y="285" width="120" height="70" as="geometry" />
        </mxCell>
        <mxCell id="1aM1Kx0VHSJil3waxq1c-21" value="&lt;font color=&quot;#ffb570&quot;&gt;output&lt;/font&gt;&lt;br&gt;&lt;div&gt;sum of 1st n&amp;nbsp;&lt;/div&gt;&lt;div&gt;natural numbers&lt;/div&gt;" style="text;html=1;align=left;verticalAlign=middle;resizable=0;points=[];autosize=1;strokeColor=none;fillColor=none;fontSize=22;" vertex="1" parent="1">
          <mxGeometry x="50" y="720" width="180" height="90" as="geometry" />
        </mxCell>
        <mxCell id="1aM1Kx0VHSJil3waxq1c-22" value="&lt;font style=&quot;color: rgb(51, 51, 255);&quot;&gt;Sum of first n natural numbers&lt;/font&gt;" style="text;html=1;align=center;verticalAlign=middle;resizable=0;points=[];autosize=1;strokeColor=none;fillColor=none;fontSize=24;fontStyle=7" vertex="1" parent="1">
          <mxGeometry x="50" y="50" width="340" height="40" as="geometry" />
        </mxCell>
      </root>
    </mxGraphModel>
  </diagram>
</mxfile>
